<?xml version="1.0" standalone="no"?>
<!DOCTYPE svg PUBLIC "-//W3C//DTD SVG 20010904//EN"
 "http://www.w3.org/TR/2001/REC-SVG-20010904/DTD/svg10.dtd">
<svg version="1.0" xmlns="http://www.w3.org/2000/svg"
 width="225.000000pt" height="225.000000pt" viewBox="0 0 225.000000 225.000000"
 preserveAspectRatio="xMidYMid meet">
<metadata>
Created by potrace 1.11, written by Peter Selinger 2001-2013
</metadata>
<g transform="translate(0.000000,225.000000) scale(0.100000,-0.100000)"
fill="#000000" stroke="none">
<path d="M1481 2051 c-10 -7 -14 -25 -12 -60 1 -28 -3 -60 -9 -71 -14 -27 -66
-52 -175 -85 -151 -46 -216 -89 -254 -170 -30 -63 -28 -103 4 -111 28 -7 55
10 55 33 0 35 36 87 78 114 25 16 99 46 166 69 66 22 136 49 154 60 62 38 88
116 61 187 -15 41 -39 52 -68 34z"/>
<path d="M1702 1968 c-5 -7 -10 -29 -10 -49 0 -86 -27 -108 -181 -148 -60 -16
-133 -42 -161 -57 -54 -29 -110 -100 -110 -139 0 -46 52 -59 74 -20 46 83 91
110 231 140 151 33 217 87 231 188 5 35 2 53 -10 72 -18 27 -47 33 -64 13z"/>
<path d="M303 1218 c11 -368 73 -571 220 -725 23 -24 37 -43 32 -43 -6 0 -50
-5 -100 -11 -93 -11 -155 -31 -155 -48 0 -40 471 -78 825 -66 409 13 603 48
504 89 -28 11 -180 36 -225 36 -5 0 12 24 39 53 27 28 63 76 79 105 31 55 35
56 125 67 189 21 323 142 323 291 0 53 -28 128 -64 171 -38 43 -132 96 -203
113 l-43 11 0 74 0 75 -681 0 -682 0 6 -192z m362 55 c-16 -63 -22 -193 -14
-284 8 -98 48 -295 74 -370 l15 -40 -31 25 c-94 79 -189 238 -224 376 -9 36
-19 122 -22 193 l-6 127 108 0 107 0 -7 -27z m1056 -175 c52 -29 72 -74 67
-150 -5 -75 -40 -114 -119 -134 -29 -8 -54 -12 -57 -10 -2 3 3 39 12 80 8 42
19 112 22 156 8 90 12 94 75 58z"/>
</g>
</svg>
